<svg width="565" height="218" viewBox="0 0 565 218" fill="none" xmlns="http://www.w3.org/2000/svg">
<path d="M108.661 215V176H0.960938V143.3L99.6609 2.6H151.561V137H175.561V176H151.561V215H108.661ZM50.1609 137H108.661V50L50.1609 137ZM281.677 217.4C266.077 217.4 252.877 214.6 242.077 209C231.277 203.4 222.477 195.7 215.677 185.9C208.877 175.9 203.977 164.4 200.977 151.4C197.977 138.2 196.477 124.2 196.477 109.4C196.477 94.2 197.977 80 200.977 66.8C204.177 53.6 209.177 42 215.977 32C222.977 22 231.877 14.2 242.677 8.59999C253.677 2.99999 266.877 0.199994 282.277 0.199994C298.277 0.199994 311.677 3.09999 322.477 8.89999C333.477 14.7 342.277 22.8 348.877 33.2C355.677 43.4 360.477 55 363.277 68C366.277 81 367.777 94.6 367.777 108.8C367.777 123.4 366.277 137.2 363.277 150.2C360.277 163.2 355.477 174.8 348.877 185C342.277 195 333.477 202.9 322.477 208.7C311.477 214.5 297.877 217.4 281.677 217.4ZM281.677 177.8C291.477 177.8 299.177 175.6 304.777 171.2C310.577 166.6 314.877 160.7 317.677 153.5C320.677 146.3 322.577 138.8 323.377 131C324.377 123 324.877 115.6 324.877 108.8C324.877 102.4 324.377 95.3 323.377 87.5C322.577 79.5 320.777 72 317.977 65C315.177 57.8 310.977 51.9 305.377 47.3C299.777 42.7 292.177 40.4 282.577 40.4C272.977 40.4 265.277 42.7 259.477 47.3C253.677 51.7 249.277 57.5 246.277 64.7C243.477 71.9 241.577 79.4 240.577 87.2C239.577 95 239.077 102.2 239.077 108.8C239.077 115.4 239.477 122.7 240.277 130.7C241.277 138.7 243.177 146.3 245.977 153.5C248.777 160.7 252.977 166.6 258.577 171.2C264.377 175.6 272.077 177.8 281.677 177.8ZM497.723 215V176H390.023V143.3L488.723 2.6H540.623V137H564.623V176H540.623V215H497.723ZM439.223 137H497.723V50L439.223 137Z" fill="#F3F7FF"/>
</svg>
